# xmcd CD database file
#
# Track frame offsets:
#	150
#	21310
#	52752
#	74030
#	82704
#	102807
#	123522
#	138352
#	165385
#	181557
#	204087
#
# Disc length: 2959 seconds
#
# Revision: 0
# Processed by: cddbd v1.5.2PL0 Copyright (c) Steve Scherf et al.
# Submitted via: CDex 1.51
#
DISCID=800b8d0b
DTITLE=Muggsy Spanier - Lonesome Road
DYEAR=1900
DGENRE=Jazz
TTITLE0=Jazz Me Blues
TTITLE1=Swinging Without Mezz
TTITLE2=Exactly Like You
TTITLE3=You Took Advantage Of Me
TTITLE4=Sister Kate
TTITLE5=I Found a New Baby
TTITLE6=Relaxin' at the Touro
TTITLE7=Rose Room
TTITLE8=Blues
TTITLE9=Do You Know What It Means
TTITLE10=My Honey's Loving Arms
EXTD=
EXTT0=
EXTT1=
EXTT2=
EXTT3=
EXTT4=
EXTT5=
EXTT6=
EXTT7=
EXTT8=
EXTT9=
EXTT10=
PLAYORDER=
